<svg width="24" height="24" viewBox="0 0 24 24" fill="none" xmlns="http://www.w3.org/2000/svg">
<path fill-rule="evenodd" clip-rule="evenodd" d="M7 1V4H17V1H19V4H21C22.6569 4 24 5.34315 24 7V9V11V21C24 22.6569 22.6569 24 21 24H3C1.34314 24 0 22.6569 0 21V11V9V7C0 5.34315 1.34315 4 3 4H5V1H7ZM22 7V9H2V7C2 6.44772 2.44772 6 3 6H5H7H17H19H21C21.5523 6 22 6.44771 22 7ZM2 21V11H22V21C22 21.5523 21.5523 22 21 22H3C2.44772 22 2 21.5523 2 21ZM12.2072 18.7071L16.7072 14.2071L15.293 12.7929L11.5001 16.5858L9.70718 14.7929L8.29297 16.2071L10.793 18.7071C11.1835 19.0976 11.8167 19.0976 12.2072 18.7071Z" fill="#1A1A1A"/>
</svg>
