<svg width="22" height="24" viewBox="0 0 22 24" fill="none" xmlns="http://www.w3.org/2000/svg">
<path fill-rule="evenodd" clip-rule="evenodd" d="M11 2C10.6022 2 10.2206 2.15804 9.93934 2.43934C9.65804 2.72064 9.5 3.10218 9.5 3.5C9.5 3.89782 9.65804 4.27936 9.93934 4.56066C10.2206 4.84196 10.6022 5 11 5C11.197 5 11.392 4.9612 11.574 4.88582C11.756 4.81044 11.9214 4.69995 12.0607 4.56066C12.1999 4.42137 12.3104 4.25601 12.3858 4.07403C12.4612 3.89204 12.5 3.69698 12.5 3.5C12.5 3.10218 12.342 2.72064 12.0607 2.43934C11.7794 2.15804 11.3978 2 11 2ZM8.52513 1.02513C9.1815 0.368749 10.0717 0 11 0C11.9283 0 12.8185 0.368749 13.4749 1.02513C14.1313 1.6815 14.5 2.57174 14.5 3.5C14.5 3.95963 14.4095 4.41475 14.2336 4.83939C14.0577 5.26403 13.7999 5.64987 13.4749 5.97487C13.1499 6.29988 12.764 6.55769 12.3394 6.73358C11.9148 6.90947 11.4596 7 11 7C10.0717 7 9.1815 6.63125 8.52513 5.97487C7.86875 5.3185 7.5 4.42826 7.5 3.5C7.5 2.57174 7.86875 1.6815 8.52513 1.02513ZM9 10C8.73478 10 8.48043 10.1054 8.29289 10.2929C8.10536 10.4804 8 10.7348 8 11V13H14V11C14 10.7348 13.8946 10.4804 13.7071 10.2929C13.5196 10.1054 13.2652 10 13 10H9ZM16 13V11C16 10.2043 15.6839 9.44129 15.1213 8.87868C14.5587 8.31607 13.7957 8 13 8H9C8.20435 8 7.44129 8.31607 6.87868 8.87868C6.31607 9.44129 6 10.2043 6 11V13H4H2H0V15H2V24H4V15H6H8H14H16H18V24H20V15H22V13H20H18H16Z" fill="#1A1A1A"/>
</svg>
