<svg width="40" height="40" viewBox="0 0 40 40" fill="none" xmlns="http://www.w3.org/2000/svg">
<rect opacity="0.15" width="39.7452" height="40" rx="6" fill="#FFB800"/>
<g clip-path="url(#clip0)">
<path d="M15.3268 30.9122C18.4567 27.7671 12.1543 21.4232 9.02967 24.5737L7.09741 32.8572L15.3268 30.9122Z" fill="white"/>
<path d="M28.6557 17.4951L15.3269 30.9115C15.3109 30.4561 15.1246 30.0113 14.7839 29.6631C14.3049 29.1809 13.6342 29.0094 13.0273 29.1594C13.171 28.5486 13.006 27.8682 12.527 27.3913C12.0479 26.9091 11.3772 26.7376 10.7704 26.8876C10.9141 26.2768 10.7491 25.5964 10.2647 25.1142C9.924 24.7712 9.47687 24.5837 9.02441 24.5676L22.3586 11.1566L28.6557 17.4951Z" fill="#FFB800"/>
<path d="M30.0803 16.067L32.1421 13.9917C32.8181 13.3112 32.8181 12.2021 32.1421 11.5216L28.2989 7.65317C27.6229 6.97271 26.521 6.97271 25.845 7.65317L23.7832 9.72849L30.0803 16.067Z" fill="#4F36D6"/>
<path d="M30.0803 16.067L32.1421 13.9917C32.8181 13.3112 32.8181 12.2021 32.1421 11.5216L28.2989 7.65317C27.6229 6.97271 26.521 6.97271 25.845 7.65317L23.7832 9.72849L30.0803 16.067Z" fill="#1A1A1A" fill-opacity="0.6"/>
<path d="M9.58326 32.2675C9.36502 31.3193 8.62512 30.5746 7.68294 30.355L7.09741 32.8568L9.58326 32.2675Z" fill="#4F36D6"/>
<path d="M9.58326 32.2675C9.36502 31.3193 8.62512 30.5746 7.68294 30.355L7.09741 32.8568L9.58326 32.2675Z" fill="#1A1A1A" fill-opacity="0.6"/>
</g>
<defs>
<clipPath id="clip0">
<rect width="25.5518" height="25.7143" fill="white" transform="translate(7.09741 7.14282)"/>
</clipPath>
</defs>
</svg>
